<mxfile host="Electron" modified="2024-06-08T17:44:24.290Z" agent="Mozilla/5.0 (Macintosh; Intel Mac OS X 10_15_7) AppleWebKit/537.36 (KHTML, like Gecko) draw.io/24.5.1 Chrome/124.0.6367.207 Electron/30.0.6 Safari/537.36" etag="DSAsprJiiNdnC3USUi85" version="24.5.1" type="device">
  <diagram name="Page-1" id="on_2h34v9GpF7mbURX5w">
    <mxGraphModel dx="1114" dy="1634" grid="1" gridSize="10" guides="1" tooltips="1" connect="1" arrows="1" fold="1" page="1" pageScale="1" pageWidth="1169" pageHeight="827" math="0" shadow="0">
      <root>
        <mxCell id="0" />
        <mxCell id="1" parent="0" />
        <mxCell id="3tarpMK1qoeDrZyvdMwa-20" value="" style="endArrow=none;dashed=1;html=1;dashPattern=1 3;strokeWidth=2;rounded=0;" edge="1" parent="1">
          <mxGeometry width="50" height="50" relative="1" as="geometry">
            <mxPoint x="360" y="-160" as="sourcePoint" />
            <mxPoint x="360" y="-400" as="targetPoint" />
          </mxGeometry>
        </mxCell>
        <mxCell id="3tarpMK1qoeDrZyvdMwa-4" value="" style="edgeStyle=orthogonalEdgeStyle;rounded=0;orthogonalLoop=1;jettySize=auto;html=1;" edge="1" parent="1" source="3tarpMK1qoeDrZyvdMwa-1" target="3tarpMK1qoeDrZyvdMwa-2">
          <mxGeometry relative="1" as="geometry" />
        </mxCell>
        <mxCell id="3tarpMK1qoeDrZyvdMwa-1" value="Process 1" style="rounded=0;whiteSpace=wrap;html=1;" vertex="1" parent="1">
          <mxGeometry x="150" y="-550" width="80" height="40" as="geometry" />
        </mxCell>
        <mxCell id="3tarpMK1qoeDrZyvdMwa-5" value="" style="edgeStyle=orthogonalEdgeStyle;rounded=0;orthogonalLoop=1;jettySize=auto;html=1;" edge="1" parent="1" source="3tarpMK1qoeDrZyvdMwa-2" target="3tarpMK1qoeDrZyvdMwa-3">
          <mxGeometry relative="1" as="geometry" />
        </mxCell>
        <mxCell id="3tarpMK1qoeDrZyvdMwa-2" value="Process 2" style="rounded=0;whiteSpace=wrap;html=1;" vertex="1" parent="1">
          <mxGeometry x="310" y="-550" width="80" height="40" as="geometry" />
        </mxCell>
        <mxCell id="3tarpMK1qoeDrZyvdMwa-3" value="Process 3" style="rounded=0;whiteSpace=wrap;html=1;" vertex="1" parent="1">
          <mxGeometry x="470" y="-550" width="80" height="40" as="geometry" />
        </mxCell>
        <mxCell id="3tarpMK1qoeDrZyvdMwa-6" value="" style="edgeStyle=orthogonalEdgeStyle;rounded=0;orthogonalLoop=1;jettySize=auto;html=1;entryX=0;entryY=0.5;entryDx=0;entryDy=0;" edge="1" parent="1" source="3tarpMK1qoeDrZyvdMwa-7" target="3tarpMK1qoeDrZyvdMwa-11">
          <mxGeometry relative="1" as="geometry" />
        </mxCell>
        <mxCell id="3tarpMK1qoeDrZyvdMwa-15" style="edgeStyle=orthogonalEdgeStyle;rounded=0;orthogonalLoop=1;jettySize=auto;html=1;entryX=0;entryY=0.5;entryDx=0;entryDy=0;" edge="1" parent="1" source="3tarpMK1qoeDrZyvdMwa-7" target="3tarpMK1qoeDrZyvdMwa-14">
          <mxGeometry relative="1" as="geometry" />
        </mxCell>
        <mxCell id="3tarpMK1qoeDrZyvdMwa-7" value="Process 1" style="rounded=0;whiteSpace=wrap;html=1;" vertex="1" parent="1">
          <mxGeometry x="150" y="-300" width="80" height="40" as="geometry" />
        </mxCell>
        <mxCell id="3tarpMK1qoeDrZyvdMwa-8" value="" style="edgeStyle=orthogonalEdgeStyle;rounded=0;orthogonalLoop=1;jettySize=auto;html=1;entryX=0;entryY=0.5;entryDx=0;entryDy=0;" edge="1" parent="1" source="3tarpMK1qoeDrZyvdMwa-9" target="3tarpMK1qoeDrZyvdMwa-10">
          <mxGeometry relative="1" as="geometry" />
        </mxCell>
        <mxCell id="3tarpMK1qoeDrZyvdMwa-9" value="Process 2a" style="rounded=0;whiteSpace=wrap;html=1;" vertex="1" parent="1">
          <mxGeometry x="320" y="-370" width="80" height="40" as="geometry" />
        </mxCell>
        <mxCell id="3tarpMK1qoeDrZyvdMwa-10" value="Process 3" style="rounded=0;whiteSpace=wrap;html=1;" vertex="1" parent="1">
          <mxGeometry x="470" y="-300" width="80" height="40" as="geometry" />
        </mxCell>
        <mxCell id="3tarpMK1qoeDrZyvdMwa-12" value="" style="edgeStyle=orthogonalEdgeStyle;rounded=0;orthogonalLoop=1;jettySize=auto;html=1;" edge="1" parent="1" source="3tarpMK1qoeDrZyvdMwa-11" target="3tarpMK1qoeDrZyvdMwa-10">
          <mxGeometry relative="1" as="geometry" />
        </mxCell>
        <mxCell id="3tarpMK1qoeDrZyvdMwa-11" value="Process 2b" style="rounded=0;whiteSpace=wrap;html=1;" vertex="1" parent="1">
          <mxGeometry x="320" y="-300" width="80" height="40" as="geometry" />
        </mxCell>
        <mxCell id="3tarpMK1qoeDrZyvdMwa-13" value="" style="edgeStyle=orthogonalEdgeStyle;rounded=0;orthogonalLoop=1;jettySize=auto;html=1;entryX=0;entryY=0.5;entryDx=0;entryDy=0;exitX=1;exitY=0.5;exitDx=0;exitDy=0;" edge="1" parent="1" source="3tarpMK1qoeDrZyvdMwa-7" target="3tarpMK1qoeDrZyvdMwa-9">
          <mxGeometry relative="1" as="geometry">
            <mxPoint x="240" y="-270" as="sourcePoint" />
            <mxPoint x="330" y="-270" as="targetPoint" />
          </mxGeometry>
        </mxCell>
        <mxCell id="3tarpMK1qoeDrZyvdMwa-16" style="edgeStyle=orthogonalEdgeStyle;rounded=0;orthogonalLoop=1;jettySize=auto;html=1;entryX=0;entryY=0.5;entryDx=0;entryDy=0;" edge="1" parent="1" source="3tarpMK1qoeDrZyvdMwa-14" target="3tarpMK1qoeDrZyvdMwa-10">
          <mxGeometry relative="1" as="geometry" />
        </mxCell>
        <mxCell id="3tarpMK1qoeDrZyvdMwa-14" value="Process 2c" style="rounded=0;whiteSpace=wrap;html=1;" vertex="1" parent="1">
          <mxGeometry x="320" y="-220" width="80" height="40" as="geometry" />
        </mxCell>
        <mxCell id="3tarpMK1qoeDrZyvdMwa-17" value="Sequential processes" style="text;strokeColor=none;fillColor=none;html=1;fontSize=24;fontStyle=1;verticalAlign=middle;align=center;" vertex="1" parent="1">
          <mxGeometry x="225" y="-620" width="270" height="40" as="geometry" />
        </mxCell>
        <mxCell id="3tarpMK1qoeDrZyvdMwa-18" value="Fan-out" style="text;strokeColor=none;fillColor=none;html=1;fontSize=24;fontStyle=1;verticalAlign=middle;align=center;" vertex="1" parent="1">
          <mxGeometry x="190" y="-400" width="120" height="40" as="geometry" />
        </mxCell>
        <mxCell id="3tarpMK1qoeDrZyvdMwa-19" value="Fan-in" style="text;strokeColor=none;fillColor=none;html=1;fontSize=24;fontStyle=1;verticalAlign=middle;align=center;" vertex="1" parent="1">
          <mxGeometry x="410" y="-400" width="120" height="40" as="geometry" />
        </mxCell>
      </root>
    </mxGraphModel>
  </diagram>
</mxfile>
